<svg width="24" height="24" viewBox="0 0 24 24" fill="none" xmlns="http://www.w3.org/2000/svg">
<path fill-rule="evenodd" clip-rule="evenodd" d="M15.8061 6.67727C14.6041 6.23906 13.3063 6 11.9527 6C7.63561 6 3.88648 8.43165 2.00024 12C2.99555 13.8829 4.50955 15.4493 6.35198 16.509L7.06847 15.7639C5.44828 14.8842 4.09149 13.5801 3.14724 12C4.93787 9.0035 8.21202 7 11.9527 7C13.0287 7 14.0661 7.16577 15.0406 7.47327L15.8061 6.67727ZM13.2771 9.30721C12.8778 9.1105 12.4284 9 11.9532 9C10.2963 9 8.95316 10.3431 8.95316 12C8.95316 12.5171 9.08398 13.0036 9.31433 13.4283L10.0616 12.6512C9.99131 12.4471 9.95316 12.228 9.95316 12C9.95316 10.8954 10.8486 10 11.9532 10C12.1536 10 12.3472 10.0295 12.5298 10.0844L13.2771 9.30721ZM13.9408 12.2239L14.8625 11.2653C14.9217 11.5004 14.9532 11.7465 14.9532 12C14.9532 13.6569 13.61 15 11.9532 15C11.7406 15 11.5331 14.9779 11.333 14.9358L12.2546 13.9774C13.1435 13.8431 13.8405 13.1236 13.9408 12.2239ZM9.60729 16.7305C10.3606 16.9068 11.1458 17 11.9527 17C15.6933 17 18.9675 14.9965 20.7581 12C19.9328 10.619 18.7924 9.44884 17.4365 8.58858L18.1424 7.8544C19.7189 8.89506 21.018 10.3218 21.9051 12C20.0189 15.5684 16.2697 18 11.9527 18C10.8631 18 9.80972 17.8451 8.81333 17.5561L9.60729 16.7305Z" fill="#919ba3"/>
<rect x="18.8413" y="3.52051" width="1" height="21.7925" transform="rotate(43.8783 18.8413 3.52051)" fill="#919ba3"/>
</svg>
