<svg width="24" height="24" viewBox="0 0 24 24" fill="none" xmlns="http://www.w3.org/2000/svg">
<path fill-rule="evenodd" clip-rule="evenodd" d="M11.9527 17C8.21202 17 4.93787 14.9965 3.14724 12C4.93787 9.0035 8.21202 7 11.9527 7C15.6933 7 18.9675 9.0035 20.7581 12C18.9675 14.9965 15.6933 17 11.9527 17ZM11.9527 6C16.2697 6 20.0189 8.43165 21.9051 12C20.0189 15.5684 16.2697 18 11.9527 18C7.63561 18 3.88648 15.5684 2.00024 12C3.88648 8.43165 7.63561 6 11.9527 6ZM13.9532 12C13.9532 13.1046 13.0577 14 11.9532 14C10.8486 14 9.95316 13.1046 9.95316 12C9.95316 10.8954 10.8486 10 11.9532 10C13.0577 10 13.9532 10.8954 13.9532 12ZM14.9532 12C14.9532 13.6569 13.61 15 11.9532 15C10.2963 15 8.95316 13.6569 8.95316 12C8.95316 10.3431 10.2963 9 11.9532 9C13.61 9 14.9532 10.3431 14.9532 12Z" fill="#919ba3"/>
</svg>
