<svg width="24" height="24" viewBox="0 0 24 24" fill="none" xmlns="http://www.w3.org/2000/svg">
<mask id="mask0_77_99" style="mask-type:alpha" maskUnits="userSpaceOnUse" x="0" y="0" width="24" height="24">
<path fill-rule="evenodd" clip-rule="evenodd" d="M22.56 17.7045C23.4785 16.0079 24 14.0648 24 12C24 5.37258 18.6274 0 12 0C5.37258 0 0 5.37258 0 12C0 18.6274 5.37258 24 12 24C16.5626 24 20.5304 21.4537 22.56 17.7045ZM12 21.12C17.0368 21.12 21.12 17.0368 21.12 12C21.12 6.96316 17.0368 2.88 12 2.88C6.96316 2.88 2.88 6.96316 2.88 12C2.88 17.0368 6.96316 21.12 12 21.12Z" fill="white"/>
</mask>
<g mask="url(#mask0_77_99)">
<path d="M24 12C24 18.6274 18.6274 24 12 24C5.37258 24 0 18.6274 0 12C0 5.37258 5.37258 0 12 0C18.6274 0 24 5.37258 24 12Z" fill="#304AC1"/>
<path fill-rule="evenodd" clip-rule="evenodd" d="M12 24C16.5626 24 20.5304 21.4537 22.56 17.7045L12 12V0C5.37258 0 0 5.37258 0 12C0 18.6274 5.37258 24 12 24Z" fill="white"/>
</g>
</svg>
