<svg width="47" height="40" viewBox="0 0 47 40" fill="none" xmlns="http://www.w3.org/2000/svg">
<path d="M45.0663 0.000965604C44.5783 0.0181586 44.1152 0.259311 43.7751 0.673335L15.0525 34.6388L3.23328 20.6622C3.06022 20.4491 2.85293 20.2789 2.62355 20.1617C2.39418 20.0444 2.14733 19.9825 1.89745 19.9795C1.64758 19.9765 1.39972 20.0325 1.16837 20.1441C0.937024 20.2558 0.726849 20.421 0.550154 20.6299C0.37346 20.8389 0.233797 21.0874 0.139347 21.361C0.0448957 21.6346 -0.002445 21.9277 9.72161e-05 22.2232C0.00263943 22.5187 0.0550134 22.8106 0.154152 23.0818C0.25329 23.3531 0.3972 23.5982 0.577453 23.8028L13.7245 39.3497C14.0768 39.7661 14.5544 40 15.0525 40C15.5505 40 16.0281 39.7661 16.3804 39.3497L46.4309 3.81395C46.7023 3.50198 46.8876 3.10034 46.9627 2.66165C47.0378 2.22296 46.999 1.76769 46.8515 1.35551C46.704 0.943327 46.4546 0.593456 46.136 0.351748C45.8175 0.11004 45.4446 -0.0122279 45.0663 0.000965604Z" fill="#65D83C"/>
</svg>
